<svg id="Group_37362" data-name="Group 37362" xmlns="http://www.w3.org/2000/svg" xmlns:xlink="http://www.w3.org/1999/xlink" width="940.433" height="319.84" viewBox="0 0 940.433 319.84">
  <defs>
    <clipPath id="clip-path">
      <rect id="Rectangle_20752" data-name="Rectangle 20752" width="940.433" height="319.84" fill="none"/>
    </clipPath>
  </defs>
  <g id="Group_37361" data-name="Group 37361" clip-path="url(#clip-path)">
    <path id="Path_26574" data-name="Path 26574" d="M122.948,287.417c-6.454-8.662-11.15-18.384-16.51-27.693Q57.168,174.146,8.157,88.417c-20.4-35.652-.786-78.972,39.439-87.3,23.419-4.847,48.3,6.348,60.782,27.894,22.249,38.4,44.234,76.963,66.319,115.463a3.846,3.846,0,0,1,.256.952,5.208,5.208,0,0,1-.34,1.438c-15.532,27.039-30.861,54.2-46.712,81.048-10.538,17.851-13.288,36.152-5.7,55.682.482,1.241,1.1,2.428.751,3.821" fill="#f8a827"/>
    <path id="Path_26575" data-name="Path 26575" d="M175.786,145.433C185.122,128.952,194.412,112.445,203.8,96c12.7-22.236,25.293-44.533,38.263-66.609C253.894,9.255,271.986-1.062,295.132.216,320.151,1.6,337.859,14.83,346.954,38.4c6.414,16.626,5.039,33.176-3.768,48.6q-56.5,98.991-113.4,197.756a11.085,11.085,0,0,1-1.615,1.784c-.652-1.587.244-2.887.766-4.269,6.29-16.648,5.4-33.022-3.129-48.53-10.791-19.629-22.318-38.852-33.345-58.353-5.625-9.948-11.923-19.528-16.673-29.964" fill="#d33d88"/>
    <path id="Path_26576" data-name="Path 26576" d="M175.786,145.433c4.75,10.436,11.048,20.016,16.673,29.964,11.027,19.5,22.554,38.724,33.345,58.353,8.526,15.508,9.419,31.882,3.129,48.53-.522,1.382-1.418,2.682-.766,4.269l-.055-.017c-1.23.209-1.262,1.054-1.074,2.017l.038-.052c-1.205.266-1.29,1.16-1.205,2.148-11.26,19.273-28.436,29.007-50.369,29.192-21.159.18-37.919-9.134-49.606-27.049.17-1.042.117-1.972-1.132-2.32l.058.073c.092-.667-.142-1.1-.854-1.19l.024.041c.2-.966.046-1.743-1.07-2.007l.026.032c.35-1.393-.269-2.58-.751-3.822-7.584-19.53-4.834-37.83,5.7-55.681,15.851-26.851,31.18-54.01,46.711-81.048a5.217,5.217,0,0,0,.341-1.438,5.649,5.649,0,0,0,.833.005" fill="#ce2915"/>
    <path id="Path_26577" data-name="Path 26577" d="M920.081,128.008c-5.671,5.592-10.464,9.644-15.33,13.63-27.137,22.231-58.555,15.186-79.336-2.754-39.886-34.433-35.19-98.412,9.482-126.355,18.085-11.313,37.594-14.363,57.424-4.47,9.239,4.61,16.842,11.783,24.159,19.092.841.84,1.55,2.586,3.1,1.8,1.132-.57.656-2.108.741-3.228.369-4.812.642-9.633,1.034-14.443.45-5.518,3.861-9.192,8.558-9.346a10.489,10.489,0,0,1,10.465,9.418c.078.827.048,1.664.048,2.5q0,64.7-.01,129.391c0,7.01-3.68,11.3-9.684,11.539-5.857.236-10.351-3.627-10.6-9.512-.227-5.258-.048-10.534-.048-17.261m.568-49.676a55.589,55.589,0,0,0-16.18-39.047c-19.68-19.831-48.528-19.926-68.015-.224C816.2,59.544,814.8,93.68,833.488,115.949c11.171,13.315,25.341,19.781,42.835,16.895,25.059-4.133,44.3-28.023,44.326-54.512" fill="#142535"/>
    <path id="Path_26578" data-name="Path 26578" d="M715.12,120.02c7.562-17.055,14.89-33.558,22.2-50.069Q750.4,40.38,763.475,10.8c2.763-6.223,8.125-9,13.507-7.187,5.958,2.008,8.328,8.282,5.447,14.794q-21.339,48.232-42.738,96.439c-4.834,10.914-9.688,21.819-14.408,32.782-2,4.654-5.048,8.011-10.3,8.081-5.3.071-8.345-3.327-10.375-7.934q-28.5-64.667-57.043-129.314C644.6,11.732,646.532,5.8,652.3,3.306c5.666-2.447,11.124.232,14.186,7.145q23.168,52.32,46.277,104.665c.649,1.468,1.388,2.9,2.355,4.9" fill="#142535"/>
    <path id="Path_26579" data-name="Path 26579" d="M499.007,120.2C515.152,83.7,530.844,48.222,546.551,12.747a27.934,27.934,0,0,1,2.433-4.879c3.318-4.7,9.185-6.11,13.63-3.446,4.827,2.892,6.427,7.925,4.014,13.393q-17.275,39.141-34.644,78.241-11.371,25.692-22.686,51.412c-2,4.559-4.859,8.135-10.18,8.251-5.585.121-8.567-3.509-10.666-8.269q-28.3-64.187-56.7-128.328c-1.61-3.637-2.63-7.292-.618-11.005,1.954-3.608,5.013-5.791,9.29-5.554,4.567.252,7.632,2.63,9.495,6.854q18.876,42.792,37.857,85.537c3.612,8.153,7.251,16.293,11.236,25.244" fill="#142535"/>
    <path id="Path_26580" data-name="Path 26580" d="M670.479,272.414c3.3,13.989,10.866,24.042,24.026,28.806,13.482,4.88,25.846,1.749,36.672-7.555.5-.433.954-.929,1.416-1.408,5.241-5.432,9.408-6.294,13.025-2.69,3.556,3.543,2.891,8.165-2.472,13.363-14.9,14.439-32.626,19.29-52.33,12.928-19.465-6.285-31.451-20.427-35.055-40.495-5.179-28.827,12.427-54.987,39.709-60.393,28-5.549,55.57,17.1,55.591,45.667.007,9.338-2.425,11.776-11.764,11.777q-31.457,0-62.915,0Zm32.36-14.936c9.641,0,19.286-.154,28.922.077,3.733.09,4.014-1.074,3.158-4.316a31.758,31.758,0,0,0-31.156-23.862c-14.585.053-28.8,11.2-32.3,25.119-.653,2.6-.007,3.059,2.452,3.029,9.64-.116,19.282-.047,28.923-.047" fill="#505b68"/>
    <path id="Path_26581" data-name="Path 26581" d="M888.2,318.555c-12.693-.408-26.982-3.765-38.136-15.408a29.841,29.841,0,0,1-5.875-8.62c-1.742-3.961-.734-7.33,2.982-9.4,3.5-1.941,7.267-1.25,9.233,2.136,4.541,7.819,10.984,12.9,19.66,14.943,11.727,2.765,23.417,2.75,34.827-1.7a19.363,19.363,0,0,0,8.034-5.75c4.966-6.04,3.3-14.106-3.718-17.494-8.639-4.17-18.107-3.966-27.349-4.774-7.981-.7-15.928-1.714-23.511-4.238-9.329-3.105-17.374-7.894-18.964-18.923-1.7-11.828,2.865-20.784,12.672-27.231,17.7-11.636,44.962-11.624,61.973-.07a33.729,33.729,0,0,1,11.519,12.867c1.911,3.813,1.216,7.227-2.462,9.531s-7.483,1.6-9.652-1.923c-9.136-14.848-23.155-15.683-38.162-13.731a39.186,39.186,0,0,0-13.259,4.111c-5.221,2.744-9.035,6.468-8.5,12.844.513,6.067,5.4,7.992,10.19,9.606,6.355,2.143,13.029,2.6,19.666,3.1a141.963,141.963,0,0,1,25.61,3.9c12.919,3.41,19.715,9.947,21.061,20.437,1.532,11.944-3.942,22.528-14.893,28.7-9.39,5.29-19.616,7.085-32.95,7.087" fill="#505b68"/>
    <path id="Path_26582" data-name="Path 26582" d="M563.2,230.187c5.917-7.988,13.118-14.282,22.9-15.674,25.684-3.656,40.933,8.32,45.458,33.183a88.247,88.247,0,0,1,1.186,15.9q-.012,22.969-.092,45.938c-.025,6.043-2.583,9.03-7.537,9-4.81-.029-7.438-3.194-7.448-9.162-.029-16.478.059-32.956-.043-49.433a47.239,47.239,0,0,0-4.861-21.693,15.18,15.18,0,0,0-8.726-7.735c-20.584-7.172-42.648,6.475-41.5,28.044.892,16.764.187,33.614.174,50.425-.005,6.309-2.606,9.7-7.392,9.732-4.924.03-7.739-3.345-7.742-9.475q-.025-60.921-.047-121.843c-.006-4.033,1-7.34,4.97-8.859,5.272-2.016,10.015,1.8,10.052,8.087.076,12.816,0,25.633.051,38.45.006,1.568-.48,3.234.6,5.112" fill="#505b68"/>
    <path id="Path_26583" data-name="Path 26583" d="M482.421,214.1q28.362,1.3,41.7,26.3c2.515,4.737,1.217,9.107-2.79,11.118-3.837,1.925-7.861.376-10.425-4.014-8.693-14.883-21.343-21.015-36.09-17.493-14.443,3.448-25.894,17.371-27.045,32.881-1.827,24.609,17.78,43.743,40.719,39.606,10.2-1.839,17.4-7.885,22.156-16.91,1.68-3.187,3.838-5.491,7.619-5.47,5.781.032,8.794,5.86,6.111,11.651-7.84,16.921-27.6,28.168-46.143,26.261-24.632-2.532-44.276-23.46-45.446-48.415-1.25-26.685,15.828-49.638,40.693-54.558,2.92-.578,5.94-.646,8.943-.953" fill="#505b68"/>
    <path id="Path_26584" data-name="Path 26584" d="M799.392,272.428c0,12.322.03,24.644-.013,36.966-.021,5.912-2.729,9.138-7.506,9.172-4.817.034-7.454-3.134-7.481-9.115-.113-24.476-.3-48.952-.207-73.427.016-4.18-.722-6.217-5.392-5.585a47.579,47.579,0,0,1-8.979.015c-4.146-.23-6.343-2.528-6.457-6.722-.117-4.289,2.291-6.522,6.251-6.939a59.214,59.214,0,0,1,10.474-.2c3.466.253,4.163-1.218,4.071-4.312a56.936,56.936,0,0,1,1.582-16.34c2.837-10.733,9.387-16.637,20.622-18.094a35.773,35.773,0,0,1,20.905,3.17c3.246,1.609,4.819,4.108,3.835,7.714-.97,3.553-3.235,5.7-7.135,5.816a17.016,17.016,0,0,1-6.74-1.46c-8.855-3.4-16.2.88-17.722,10.148-2.077,12.682-1.583,13.274,11.082,13.275,3,0,6-.115,8.991.036a7.316,7.316,0,0,1,7.2,7.388c-.138,3.73-3.118,6.5-7.3,6.563-5.327.083-10.67.246-15.981-.058-3.631-.208-4.417,1.152-4.368,4.528.181,12.486.072,24.975.072,37.463h.2" fill="#505b68"/>
    <path id="Path_26585" data-name="Path 26585" d="M616.9,99.438c0,14.475.023,28.95-.009,43.425-.018,8.087-3.936,12.817-10.592,12.933-6.829.118-11.358-4.883-11.391-12.893q-.182-44.673-.227-89.348A10.829,10.829,0,0,1,605.068,42.5c6.626-.173,11.5,4.269,11.555,11.019.127,15.306.04,30.614.04,45.922Z" fill="#142535"/>
    <path id="Path_26586" data-name="Path 26586" d="M605.469.108c8.437-.025,15.724,7.05,15.817,15.357A16.07,16.07,0,0,1,605.35,31.273,15.885,15.885,0,0,1,589.6,15.85,15.764,15.764,0,0,1,605.469.108" fill="#142535"/>
    <path id="Path_26587" data-name="Path 26587" d="M227.038,288.549c-.188-.963-.155-1.808,1.075-2.017.063.9-.108,1.669-1.075,2.017" fill="#d33d88"/>
    <path id="Path_26588" data-name="Path 26588" d="M122.923,287.385c1.116.264,1.269,1.041,1.069,2.007a1.618,1.618,0,0,1-1.069-2.007" fill="#f8a827"/>
    <path id="Path_26589" data-name="Path 26589" d="M225.871,290.645c-.085-.988,0-1.882,1.205-2.148a1.987,1.987,0,0,1-1.205,2.148" fill="#d33d88"/>
    <path id="Path_26590" data-name="Path 26590" d="M124.765,290.468c1.249.347,1.3,1.278,1.132,2.32a2.2,2.2,0,0,1-1.132-2.32" fill="#f8a827"/>
    <path id="Path_26591" data-name="Path 26591" d="M123.968,289.351c.711.09.945.523.853,1.19-.759-.056-.918-.543-.853-1.19" fill="#f8a827"/>
  </g>
</svg>
